<?xml version="1.0" standalone="no"?>
<!DOCTYPE svg PUBLIC "-//W3C//DTD SVG 20010904//EN"
 "http://www.w3.org/TR/2001/REC-SVG-20010904/DTD/svg10.dtd">
<svg version="1.0" xmlns="http://www.w3.org/2000/svg"
 width="512.000000pt" height="512.000000pt" viewBox="0 0 512.000000 512.000000"
 preserveAspectRatio="xMidYMid meet">

<g transform="translate(0.000000,512.000000) scale(0.100000,-0.100000)"
fill="#000000" stroke="none">
<path d="M2210 4029 c-612 -30 -1182 -143 -1590 -316 -344 -146 -563 -342
-609 -544 -7 -28 -11 -405 -11 -1040 0 -967 1 -997 19 -1020 l19 -24 591 -3
591 -2 25 24 c14 14 25 37 25 51 0 16 -62 133 -156 293 l-156 267 12 40 c23
78 75 160 150 235 220 222 616 379 1096 435 169 20 518 20 689 0 647 -75 1148
-344 1245 -670 l12 -40 -156 -267 c-94 -160 -156 -277 -156 -293 0 -14 11 -37
25 -51 l25 -24 591 2 591 3 19 24 c18 23 19 53 19 1020 0 635 -4 1012 -11
1040 -74 321 -557 600 -1299 750 -489 99 -1043 137 -1600 110z m677 -150 c126
-6 231 -14 235 -18 6 -5 -28 -321 -35 -327 -1 -1 -47 3 -102 8 -55 5 -246 10
-425 10 -179 0 -370 -5 -425 -10 -55 -5 -101 -9 -102 -8 -7 6 -41 322 -35 328
8 8 316 24 519 26 79 1 245 -3 370 -9z m-1043 -66 c18 -115 36 -285 32 -292
-3 -5 -34 -12 -68 -15 -180 -20 -500 -91 -687 -151 -62 -20 -114 -35 -115 -33
-9 10 -147 321 -144 323 2 2 66 22 142 44 219 64 477 116 771 154 64 8 63 9
69 -30z m1671 6 c184 -26 428 -79 601 -130 76 -22 140 -42 142 -44 3 -2 -135
-313 -143 -323 -2 -2 -59 14 -127 36 -163 52 -397 106 -583 133 -82 13 -154
26 -158 29 -7 6 8 159 29 293 l6 38 46 -6 c26 -3 110 -15 187 -26z m-2723
-392 l75 -163 -113 -57 c-183 -94 -329 -209 -425 -336 l-25 -34 -78 133 c-86
149 -86 153 -37 245 58 109 207 226 413 325 57 27 106 50 109 50 3 0 40 -73
81 -163z m3726 113 c206 -99 355 -216 413 -325 49 -92 49 -96 -38 -245 l-77
-133 -20 29 c-36 51 -179 189 -236 227 -64 43 -92 46 -125 12 -50 -49 -36 -76
98 -182 76 -60 150 -150 173 -208 l15 -41 -96 -164 c-53 -91 -100 -169 -105
-174 -5 -5 -18 11 -30 35 -60 119 -213 263 -376 354 -47 27 -83 53 -81 59 28
69 372 806 376 806 3 0 52 -23 109 -50z m-1566 -147 c53 -3 102 -9 108 -13 8
-5 5 -50 -9 -165 -12 -87 -22 -160 -24 -161 -2 -2 -53 1 -113 7 -60 6 -219 11
-354 11 -135 0 -294 -5 -354 -11 -60 -6 -111 -9 -113 -7 -2 1 -12 74 -24 161
-23 178 -24 174 51 176 25 1 104 5 175 9 133 8 484 5 657 -7z m-1052 -30 c0
-5 9 -79 20 -167 12 -87 19 -160 17 -162 -2 -2 -52 -13 -113 -24 -134 -26
-343 -79 -366 -94 -43 -26 -38 -102 7 -126 21 -11 46 -8 192 28 169 42 292 66
299 60 4 -5 46 -330 42 -332 -2 -1 -43 -10 -93 -20 -112 -22 -297 -78 -390
-117 -38 -16 -73 -25 -77 -21 -7 7 -256 543 -344 740 l-23 53 26 10 c149 56
574 152 796 178 4 1 7 -2 7 -6z m1532 -28 c241 -39 611 -136 610 -160 0 -5
-33 -83 -74 -173 -54 -121 -77 -162 -88 -158 -8 2 -66 23 -128 45 -125 45
-290 89 -456 121 -61 11 -111 22 -113 24 -2 2 5 75 17 162 11 88 20 162 20
166 0 4 12 5 28 3 15 -3 98 -16 184 -30z m-2422 -381 c41 -91 76 -169 78 -174
2 -4 -28 -24 -65 -45 -157 -86 -309 -222 -377 -339 -22 -37 -43 -63 -47 -59
-4 4 -51 82 -104 172 -91 157 -95 165 -85 197 27 81 133 195 262 280 71 48
235 134 252 134 6 0 45 -75 86 -166z m1899 -44 c51 -5 95 -11 98 -14 5 -5 -33
-315 -39 -322 -3 -2 -47 0 -99 6 -125 13 -496 13 -615 -1 -53 -6 -98 -8 -101
-5 -5 4 -42 273 -43 308 0 21 35 27 235 38 162 8 413 4 564 -10z m419 -59
c176 -37 337 -84 469 -138 l32 -13 -23 -52 c-13 -29 -47 -101 -74 -161 l-51
-107 -53 21 c-113 45 -254 89 -371 115 -67 15 -125 30 -129 34 -5 3 1 75 12
160 11 85 20 158 20 163 0 11 14 9 168 -22z m-2268 -1613 c0 -5 -205 -8 -455
-8 l-455 0 0 787 0 787 455 -779 c250 -429 455 -783 455 -787z m3910 777 l0
-785 -455 0 c-250 0 -455 3 -455 7 0 7 903 1562 908 1563 1 0 2 -353 2 -785z
m-3746 469 c37 -80 69 -151 72 -158 3 -8 -34 -39 -98 -82 -122 -81 -238 -192
-298 -287 -24 -37 -44 -66 -45 -65 -1 2 -34 59 -74 127 l-72 124 12 54 c21 94
91 194 198 286 57 49 207 146 227 147 6 0 41 -66 78 -146z m2820 109 c88 -53
163 -112 227 -179 68 -72 103 -130 124 -209 l17 -60 -72 -125 c-40 -69 -74
-126 -75 -128 -1 -1 -21 28 -45 65 -61 95 -182 211 -300 289 -64 42 -99 71
-96 80 27 71 141 304 149 304 5 0 37 -17 71 -37z"/>
<path d="M2270 2099 c-201 -24 -411 -78 -548 -140 -328 -148 -372 -415 -96
-589 328 -207 1025 -268 1539 -134 187 48 355 132 429 214 110 122 108 263 -5
380 -49 51 -126 100 -155 100 -67 0 -95 -94 -39 -134 56 -40 106 -90 121 -118
70 -135 -235 -295 -661 -349 -55 -7 -188 -13 -295 -13 -107 0 -240 6 -295 13
-426 54 -731 214 -661 349 63 123 339 232 681 272 213 24 560 8 765 -35 79
-17 110 -9 129 32 15 33 14 47 -8 75 -21 26 -51 35 -221 64 -112 19 -561 28
-680 13z"/>
</g>
</svg>
