<?xml version="1.0" standalone="no"?>
<!DOCTYPE svg PUBLIC "-//W3C//DTD SVG 20010904//EN"
 "http://www.w3.org/TR/2001/REC-SVG-20010904/DTD/svg10.dtd">
<svg version="1.0" xmlns="http://www.w3.org/2000/svg"
 width="717.000000pt" height="980.000000pt" viewBox="0 0 717.000000 980.000000"
 preserveAspectRatio="xMidYMid meet">

<g transform="translate(0.000000,980.000000) scale(0.100000,-0.100000)"
fill="#000000" stroke="none">
<path d="M303 9766 c-104 -34 -204 -123 -251 -224 -23 -49 -27 -70 -27 -152 0
-88 3 -101 34 -165 37 -75 68 -108 1748 -1795 l533 -535 2 -3250 c3 -3096 4
-3253 21 -3310 54 -180 194 -300 382 -327 67 -9 93 -8 159 5 185 38 301 138
360 310 l21 62 3 1892 3 1893 69 0 70 0 2 -1892 3 -1893 22 -65 c63 -184 223
-303 428 -317 226 -15 410 103 477 307 21 63 22 84 26 587 l4 523 924 0 924 0
-2 1373 -3 1372 -256 3 -257 2 -4 213 c-3 197 -5 215 -27 260 -44 90 -121 116
-343 117 l-107 0 -4 1128 c-4 1230 -1 1160 -63 1332 -116 326 -387 582 -700
665 -112 30 -263 34 -1154 35 l-895 0 -895 895 c-1009 1010 -947 956 -1103
962 -51 2 -98 -2 -124 -11z m4247 -4356 l0 -1240 -80 0 -80 0 0 1240 0 1240
80 0 80 0 0 -1240z"/>
<path d="M3225 9726 c-182 -42 -363 -157 -470 -297 -61 -82 -128 -224 -149
-316 -21 -93 -21 -263 0 -356 21 -96 100 -257 165 -335 69 -83 172 -163 273
-212 130 -63 189 -75 361 -75 172 0 231 12 361 75 163 79 289 203 370 365 61
124 84 221 84 357 0 141 -20 229 -80 353 -100 206 -259 344 -485 421 -70 24
-99 28 -225 30 -98 3 -164 -1 -205 -10z"/>
<path d="M6428 4164 c-5 -4 -8 -623 -8 -1376 l0 -1369 238 3 c233 3 238 3 294
30 114 53 192 163 209 296 11 88 11 1987 0 2076 -19 141 -115 269 -239 317
-51 19 -81 22 -272 26 -118 3 -218 2 -222 -3z"/>
</g>
</svg>
