<?xml version="1.0" standalone="no"?>
<!DOCTYPE svg PUBLIC "-//W3C//DTD SVG 20010904//EN"
 "http://www.w3.org/TR/2001/REC-SVG-20010904/DTD/svg10.dtd">
<svg version="1.0" xmlns="http://www.w3.org/2000/svg"
 width="2298.000000pt" height="2173.000000pt" viewBox="0 0 2298.000000 2173.000000"
 preserveAspectRatio="xMidYMid meet">

<g transform="translate(0.000000,2173.000000) scale(0.100000,-0.100000)"
fill="#000000" stroke="none">
<path d="M21596 21688 c-9 -12 -16 -26 -16 -30 0 -28 -239 -634 -1568 -3978
-1310 -3296 -1330 -3346 -1430 -3545 -52 -105 -85 -154 -163 -248 -144 -172
-291 -510 -1516 -3492 -913 -2223 -1056 -2563 -1219 -2905 -201 -421 -293
-546 -531 -724 -218 -164 -356 -221 -614 -256 -495 -66 -847 5 -2150 435 -942
311 -1490 480 -2189 673 -1368 379 -3043 756 -4180 941 -1153 188 -2161 281
-2920 268 -448 -7 -611 -31 -905 -129 -652 -220 -1203 -649 -1571 -1224 -243
-381 -488 -1032 -559 -1489 -68 -435 -57 -1178 25 -1743 182 -1250 681 -2294
1497 -3132 229 -236 384 -367 608 -517 386 -257 854 -449 1266 -517 503 -83
1443 -88 2204 -11 2519 256 7221 1556 8705 2408 798 458 1697 1391 2499 2594
251 378 338 554 810 1641 815 1877 1392 3301 1749 4322 136 389 218 638 453
1380 198 627 201 636 206 743 4 83 2 124 -12 179 -41 168 -49 144 990 2788
282 718 750 1910 1040 2650 290 740 603 1536 696 1770 93 234 169 435 169 447
0 28 -19 46 -100 98 -77 49 -730 388 -737 382 -5 -5 -370 -915 -522 -1302 -55
-137 -171 -448 -259 -690 -175 -481 -335 -903 -1000 -2641 -607 -1584 -857
-2242 -974 -2559 -55 -148 -106 -284 -115 -302 -26 -57 -105 -68 -190 -27 -73
36 -62 84 147 629 143 372 556 1411 1072 2700 231 578 545 1367 698 1755 561
1423 740 1866 924 2295 47 109 86 203 86 207 0 13 -339 178 -365 178 -13 0
-31 -10 -39 -22z m-2639 -8007 c23 -11 46 -28 52 -39 32 -60 -15 -163 -81
-176 -68 -13 -270 38 -282 70 -7 19 25 82 56 111 58 54 175 70 255 34z
m-14182 -7111 c255 -13 568 -41 1011 -90 369 -41 830 -85 999 -94 55 -3 255
-11 445 -16 1770 -53 3348 -262 4755 -630 127 -33 426 -110 665 -170 593 -149
739 -194 942 -296 332 -165 521 -381 638 -731 61 -185 83 -340 77 -558 -5
-188 -18 -277 -63 -423 -89 -294 -332 -619 -591 -793 -187 -125 -375 -202
-787 -325 -795 -238 -957 -291 -1631 -534 -1933 -697 -3614 -1117 -4960 -1239
-294 -27 -391 -32 -725 -38 -627 -11 -1097 39 -1560 163 -277 74 -379 119
-507 221 -415 330 -705 881 -919 1744 -133 541 -237 1093 -280 1489 -23 217
-23 593 0 765 68 500 241 833 571 1100 439 355 1045 498 1920 455z"/>
<path d="M6035 5370 c-1518 -264 -2779 -487 -2802 -496 -55 -20 -119 -83 -149
-147 -76 -165 32 -352 221 -382 30 -5 778 121 2820 474 1529 265 2800 489
2825 497 61 23 142 106 163 169 61 177 -61 352 -251 361 -53 2 -646 -98 -2827
-476z"/>
<path d="M6885 4454 c-2151 -369 -3930 -677 -3954 -684 -61 -16 -151 -107
-174 -174 -54 -159 44 -323 214 -357 51 -10 274 27 3784 626 4564 778 4178
711 4224 734 47 24 107 90 132 145 26 57 25 157 -1 211 -25 52 -82 110 -135
138 -98 50 177 93 -4090 -639z"/>
<path d="M8340 3645 c-2159 -371 -4136 -710 -4393 -754 -520 -89 -538 -95
-603 -179 -92 -121 -81 -269 26 -366 58 -52 114 -76 182 -76 49 0 8765 1486
8859 1510 88 24 177 117 199 211 41 171 -95 331 -278 328 -38 -1 -1784 -296
-3992 -674z"/>
<path d="M11110 3065 c-8 -3 -1547 -268 -3420 -590 -2088 -360 -3421 -593
-3446 -604 -55 -25 -111 -83 -140 -145 -83 -179 54 -381 256 -379 71 1 6832
1163 6898 1186 74 26 145 105 172 191 28 89 -8 209 -82 272 -61 51 -178 85
-238 69z"/>
</g>
</svg>
