<?xml version="1.0" standalone="no"?>
<!DOCTYPE svg PUBLIC "-//W3C//DTD SVG 20010904//EN"
 "http://www.w3.org/TR/2001/REC-SVG-20010904/DTD/svg10.dtd">
<svg version="1.0" xmlns="http://www.w3.org/2000/svg"
 width="1280.000000pt" height="981.000000pt" viewBox="0 0 1280.000000 981.000000"
 preserveAspectRatio="xMidYMid meet">
<metadata>
Created by potrace 1.15, written by Peter Selinger 2001-2017
</metadata>
<g transform="translate(0.000000,981.000000) scale(0.100000,-0.100000)"
fill="#000000" stroke="none">
<path d="M9760 9804 c-454 -31 -798 -91 -1203 -210 -681 -202 -1401 -592
-1942 -1052 -55 -47 -179 -165 -275 -261 -373 -374 -640 -740 -859 -1181 -109
-220 -161 -349 -271 -675 -106 -316 -154 -446 -231 -626 -285 -670 -673 -1271
-1273 -1974 -395 -463 -1282 -1396 -1355 -1425 -21 -8 -107 -65 -192 -126 -85
-61 -273 -194 -419 -294 -146 -101 -515 -356 -819 -568 -305 -212 -609 -421
-675 -464 -149 -98 -177 -125 -211 -199 -24 -53 -27 -75 -32 -219 -7 -190 2
-226 74 -289 56 -50 430 -241 471 -241 32 0 104 43 127 77 9 12 495 367 1081
790 587 422 1076 778 1088 791 36 40 318 176 736 357 898 389 1901 724 2995
1000 620 156 1368 317 1556 335 677 63 1420 316 2207 752 1076 595 1801 1290
2181 2089 316 666 364 1382 140 2102 -269 864 -1148 1421 -2379 1507 -132 9
-408 11 -520 4z m745 -49 c589 -70 1065 -254 1435 -552 125 -101 298 -289 365
-398 29 -46 13 -28 -52 60 -439 589 -1288 908 -2343 882 -310 -8 -542 -33
-824 -87 -60 -12 -110 -19 -112 -17 -6 6 177 44 346 72 130 21 370 48 520 59
117 8 541 -4 665 -19z m-1548 -121 c-3 -3 -12 -4 -19 -1 -8 3 -5 6 6 6 11 1
17 -2 13 -5z m1063 -261 c14 -9 37 -26 52 -38 l26 -22 -123 -87 c-68 -47 -130
-88 -137 -91 -13 -5 -208 139 -208 153 0 4 29 26 63 49 61 41 65 42 157 46 52
1 106 4 120 5 14 1 37 -6 50 -15z m170 8 c0 -3 -16 -16 -36 -29 l-35 -23 -29
23 c-16 13 -29 27 -29 31 -1 4 28 7 64 6 36 -1 65 -5 65 -8z m273 -16 c78 -9
146 -17 151 -18 12 -4 -248 -187 -264 -187 -15 0 -200 143 -197 152 1 4 20 20
42 37 48 36 70 37 268 16z m-811 -25 c-23 -16 -45 -30 -48 -30 -3 0 -20 10
-37 23 l-32 22 45 6 c25 3 60 7 79 7 l34 2 -41 -30z m-112 -21 l35 -30 -30
-22 c-16 -12 -65 -47 -110 -78 l-80 -57 -103 81 c-56 44 -101 81 -100 82 3 2
169 31 278 48 57 9 76 5 110 -24z m1293 -15 c70 -15 124 -31 120 -35 -4 -4
-95 -68 -201 -143 l-192 -137 -90 68 c-49 37 -88 72 -86 78 1 5 65 53 142 107
91 63 146 95 159 93 11 -2 78 -16 148 -31z m-1612 -101 c60 -47 106 -89 102
-93 -5 -4 -55 -39 -111 -79 -68 -47 -108 -69 -115 -63 -127 98 -207 165 -202
170 7 8 209 151 213 152 1 0 52 -39 113 -87z m1004 12 c52 -42 95 -78 95 -80
0 -5 -258 -185 -265 -185 -3 0 -50 35 -104 79 l-99 79 131 91 c72 50 134 91
139 91 5 0 51 -34 103 -75z m-1211 45 c-5 -5 -41 -31 -79 -59 l-70 -49 -37 27
c-21 14 -38 29 -38 32 0 3 48 17 108 31 128 31 129 31 116 18z m687 -67 c54
-43 98 -81 99 -84 0 -3 -49 -39 -109 -81 l-108 -75 -99 77 c-55 43 -99 81 -99
84 0 6 205 155 214 156 2 0 47 -35 102 -77z m1429 28 c63 -21 130 -45 148 -53
l34 -15 -251 -177 c-138 -97 -253 -176 -256 -176 -12 0 -215 165 -212 173 5
15 391 286 407 287 9 0 67 -18 130 -39z m-2336 -50 c20 -16 36 -33 35 -38 -1
-4 -44 -39 -96 -76 l-95 -68 -76 59 c-43 33 -77 64 -77 68 0 9 225 82 256 83
9 1 33 -12 53 -28z m2677 -92 c65 -33 119 -64 119 -67 0 -8 -510 -372 -540
-386 -14 -6 -40 9 -120 72 l-101 81 173 122 c95 67 209 148 253 180 44 32 84
58 88 59 5 0 62 -27 128 -61z m-2403 -124 c12 -10 -5 -26 -88 -85 -69 -49
-105 -69 -113 -62 -7 5 -56 44 -110 86 l-98 78 102 73 103 72 95 -75 c53 -41
102 -81 109 -87z m1380 86 c45 -35 82 -67 82 -70 0 -3 -22 -20 -48 -38 -26
-17 -86 -58 -133 -92 l-85 -60 -93 74 -92 74 103 72 c57 39 117 82 133 94 35
26 26 30 133 -54z m-1930 7 c42 -34 81 -65 85 -68 5 -4 -39 -42 -98 -84 l-107
-77 -46 36 c-26 21 -79 63 -119 93 -58 46 -69 58 -56 66 13 7 250 94 261 95 2
1 38 -27 80 -61z m990 -71 l52 -40 -112 -78 c-67 -48 -116 -75 -122 -70 -6 4
-53 41 -104 80 l-92 73 112 78 112 79 50 -41 c28 -22 75 -59 104 -81z m424 33
c53 -41 97 -77 97 -80 0 -3 -49 -38 -109 -79 -70 -47 -113 -70 -122 -65 -46
27 -188 148 -181 155 18 18 208 148 214 146 3 -1 49 -36 101 -77z m-1669 -119
c59 -46 104 -87 102 -91 -3 -5 -50 -40 -105 -80 l-100 -71 -145 113 c-79 62
-144 116 -145 119 0 4 57 31 128 62 100 43 130 52 143 43 8 -6 63 -49 122 -95z
m3457 42 c47 -31 97 -66 111 -78 l27 -22 -281 -198 c-155 -109 -287 -198 -294
-199 -17 -1 -223 157 -215 165 24 23 549 389 557 389 6 0 48 -25 95 -57z
m-2974 -65 c84 -66 102 -84 92 -95 -7 -6 -56 -41 -108 -77 -80 -55 -96 -63
-110 -53 -8 8 -57 46 -107 86 l-93 73 103 73 c56 41 106 74 110 74 5 1 55 -36
113 -81z m1928 -3 c58 -44 105 -82 105 -85 0 -3 -61 -47 -135 -98 -93 -65
-138 -91 -147 -85 -93 72 -207 167 -204 170 25 24 255 181 264 180 7 -1 60
-38 117 -82z m-1469 -16 c50 -39 94 -74 98 -79 9 -8 -178 -143 -198 -143 -6 0
-55 35 -108 77 l-97 78 97 69 c54 37 103 68 108 68 6 1 51 -31 100 -70z m572
-91 c-1 -4 -50 -40 -109 -81 l-106 -75 -102 80 c-56 44 -100 81 -98 83 2 1 52
37 112 78 l108 76 99 -77 c54 -42 97 -80 96 -84z m366 85 c47 -38 85 -72 85
-78 0 -9 -197 -156 -208 -155 -3 1 -46 34 -97 74 l-92 73 107 76 c59 42 110
76 113 76 3 1 44 -29 92 -66z m-2160 -89 c81 -64 147 -119 147 -122 -1 -4 -48
-40 -106 -80 l-105 -73 -169 132 c-94 73 -168 135 -165 137 6 6 238 121 245
121 3 1 72 -51 153 -115z m3997 -25 c50 -44 90 -82 90 -84 0 -5 -537 -384
-552 -390 -13 -5 -208 139 -208 153 0 10 552 400 568 401 7 1 53 -35 102 -80z
m-3474 -31 c58 -45 101 -85 97 -89 -5 -5 -53 -39 -108 -77 l-99 -69 -101 79
c-55 44 -100 84 -100 90 0 10 184 147 199 148 4 0 55 -37 112 -82z m467 -9
c51 -40 96 -75 100 -79 12 -11 -205 -161 -218 -151 -5 4 -52 41 -103 81 l-93
72 103 73 c57 41 107 74 111 74 5 1 50 -31 100 -70z m1942 -11 c52 -40 93 -76
92 -80 -1 -4 -60 -48 -131 -99 -114 -81 -131 -91 -148 -80 -47 30 -188 145
-186 152 6 17 254 187 266 183 8 -2 56 -37 107 -76z m-1475 -15 l98 -76 -36
-26 c-20 -15 -67 -48 -104 -74 l-66 -47 -101 78 c-55 42 -100 79 -100 82 0 7
192 140 203 140 4 0 52 -35 106 -77z m460 6 c50 -39 90 -74 90 -78 0 -6 -172
-130 -201 -145 -13 -6 -37 7 -103 59 -47 36 -88 70 -91 75 -4 6 197 157 213
160 1 0 43 -32 92 -71z m476 -10 c57 -45 104 -85 104 -88 -1 -7 -205 -151
-214 -151 -12 0 -211 161 -211 170 0 10 195 150 208 150 5 0 55 -37 113 -81z
m-2651 -63 c91 -71 165 -132 165 -135 -1 -10 -210 -153 -218 -149 -28 11 -361
283 -355 289 16 15 228 129 235 127 5 -2 82 -61 173 -132z m4399 -13 c67 -76
127 -154 124 -163 -2 -5 -115 -87 -252 -184 l-248 -175 -77 59 c-134 105 -138
109 -121 120 8 5 132 93 275 194 143 102 261 186 263 186 1 0 17 -17 36 -37z
m-3856 -54 c57 -45 101 -83 99 -86 -18 -17 -204 -143 -212 -143 -15 0 -200
148 -200 160 0 11 184 148 200 149 6 0 56 -36 113 -80z m469 -12 c50 -39 91
-76 91 -82 -1 -5 -47 -42 -102 -81 l-101 -71 -75 58 c-41 33 -88 69 -103 82
l-28 22 103 72 c57 40 108 72 113 72 6 1 51 -32 102 -72z m-1268 -82 c99 -77
180 -142 180 -145 1 -3 -23 -22 -52 -42 -28 -20 -75 -53 -104 -73 l-52 -37
-186 147 c-102 80 -185 149 -185 153 0 9 203 142 212 139 4 -1 88 -65 187
-142z m1737 70 c52 -42 94 -77 94 -80 0 -8 -198 -145 -210 -145 -13 0 -203
150 -197 156 14 14 203 143 210 144 4 0 51 -34 103 -75z m1935 -6 c57 -44 104
-84 104 -89 0 -5 -58 -50 -130 -101 -115 -81 -131 -90 -149 -79 -11 7 -60 44
-109 83 -73 58 -86 72 -75 83 10 10 248 182 254 184 1 0 48 -36 105 -81z
m-1393 -84 c-2 -1 -48 -34 -102 -73 l-99 -71 -79 62 c-44 34 -86 67 -94 73 -8
6 -14 14 -14 17 0 3 45 37 101 76 l101 70 94 -76 c52 -42 93 -77 92 -78z m387
70 c57 -44 104 -82 104 -85 0 -8 -207 -150 -219 -150 -9 0 -167 119 -213 160
-9 8 202 162 216 157 4 -1 55 -38 112 -82z m481 -16 l104 -82 -111 -78 -111
-78 -101 81 c-56 44 -103 82 -105 83 -4 3 208 155 216 155 2 0 51 -37 108 -81z
m1852 36 c-3 -3 -9 2 -12 12 -6 14 -5 15 5 6 7 -7 10 -15 7 -18z m-4440 -146
c57 -45 102 -82 100 -84 -2 -1 -51 -36 -110 -78 l-107 -76 -106 84 -106 83
107 76 c59 42 110 76 113 76 3 0 52 -37 109 -81z m4482 46 c0 -5 -5 -3 -10 5
-5 8 -10 20 -10 25 0 6 5 3 10 -5 5 -8 10 -19 10 -25z m-3997 -69 c99 -79 105
-58 -42 -161 -96 -67 -77 -70 -207 32 -47 37 -81 70 -77 74 5 4 53 39 108 77
81 56 103 67 116 58 8 -6 54 -42 102 -80z m-1288 -62 c102 -81 185 -150 183
-155 -4 -10 -200 -149 -210 -149 -14 0 -369 282 -366 290 3 8 198 160 205 160
2 0 86 -66 188 -146z m1834 -16 c1 -7 -178 -135 -202 -143 -12 -5 -202 136
-202 150 0 3 47 38 104 79 l105 73 97 -76 c54 -42 98 -79 98 -83z m-2499 138
c0 -2 -8 -10 -17 -17 -16 -13 -17 -12 -4 4 13 16 21 21 21 13z m2869 -68 c51
-39 88 -75 84 -78 -4 -4 -53 -39 -107 -78 l-99 -71 -51 41 c-28 22 -72 57 -98
76 l-47 36 37 26 c20 14 66 47 102 73 36 25 70 46 77 47 6 0 52 -32 102 -72z
m475 -28 c47 -36 85 -68 86 -72 0 -3 -45 -38 -100 -78 l-100 -71 -111 87 c-60
47 -108 88 -106 91 3 2 49 35 103 73 95 67 98 68 120 52 13 -9 61 -46 108 -82z
m1477 13 c54 -43 99 -81 99 -84 0 -13 -263 -190 -275 -185 -19 7 -195 147
-195 155 1 5 259 190 268 191 2 0 48 -35 103 -77z m953 -6 c29 -45 60 -96 69
-113 l16 -31 -210 -147 c-126 -88 -215 -144 -222 -140 -7 4 -58 43 -114 87
l-103 80 178 125 c97 69 206 147 242 173 36 26 71 48 78 48 7 1 36 -36 66 -82z
m-1956 -14 c50 -41 92 -76 92 -78 0 -2 -48 -38 -106 -79 -64 -45 -112 -73
-119 -68 -29 17 -194 148 -194 154 -2 14 211 158 223 151 6 -4 53 -40 104 -80z
m468 -5 c57 -46 104 -86 104 -89 0 -7 -181 -136 -203 -144 -9 -4 -53 23 -120
76 l-105 83 107 77 c58 43 108 78 109 78 2 1 51 -36 108 -81z m-4502 -100
c-297 -304 -517 -589 -696 -903 -133 -234 -256 -527 -309 -739 -24 -98 -28
-110 -34 -104 -8 7 59 242 105 368 54 150 199 443 294 596 92 148 220 325 341
471 78 95 451 483 463 483 3 0 -71 -78 -164 -172z m1450 -8 c47 -36 85 -68 86
-72 0 -7 -196 -148 -206 -148 -12 0 -204 155 -202 162 2 4 48 39 102 78 86 61
102 68 117 58 10 -7 56 -42 103 -78z m479 -13 l87 -69 -105 -74 c-59 -41 -111
-74 -116 -74 -13 0 -197 142 -198 152 -1 4 47 41 105 82 90 64 109 73 123 63
10 -7 56 -43 104 -80z m520 -50 c15 -12 27 -24 27 -27 0 -3 -47 -39 -105 -79
l-106 -73 -72 56 c-40 31 -85 66 -101 79 l-29 24 108 76 108 76 71 -56 c39
-31 83 -65 99 -76z m-1805 -22 c99 -77 180 -143 179 -147 -1 -4 -46 -39 -101
-77 l-98 -70 -72 56 c-39 30 -117 92 -174 136 -56 44 -101 83 -100 87 5 12
173 160 179 157 3 -1 87 -65 187 -142z m2205 62 c48 -38 87 -70 87 -72 0 -6
-202 -145 -211 -145 -12 0 -189 139 -189 148 1 13 205 150 215 144 6 -3 49
-37 98 -75z m499 -37 c37 -29 65 -57 62 -61 -2 -4 -50 -40 -105 -78 l-100 -71
-110 87 c-110 87 -111 88 -88 103 13 8 61 43 108 76 l86 62 40 -32 c22 -18 70
-56 107 -86z m441 -1 l98 -78 -101 -71 c-55 -40 -106 -70 -113 -67 -22 9 -192
149 -192 159 0 14 188 146 200 139 6 -3 54 -40 108 -82z m1483 10 c57 -45 104
-83 104 -85 0 -1 -61 -46 -136 -98 -80 -57 -140 -94 -147 -89 -7 4 -54 40
-105 81 -76 62 -91 77 -80 88 14 14 250 183 257 184 2 0 50 -37 107 -81z
m-1006 -19 c52 -41 97 -76 100 -78 5 -4 -14 -19 -136 -104 l-81 -57 -106 82
c-58 45 -106 84 -106 87 0 12 215 156 224 150 6 -3 53 -39 105 -80z m468 -6
c53 -42 98 -80 100 -84 3 -9 -192 -150 -208 -150 -15 0 -195 142 -196 155 0 8
190 152 204 154 2 1 47 -33 100 -75z m1415 -86 c30 -68 69 -163 87 -213 30
-85 32 -96 27 -195 -6 -106 -24 -228 -53 -355 -19 -80 -24 -91 -33 -76 -5 7
-29 -5 -68 -34 l-61 -44 -106 84 -106 84 142 100 141 99 43 -34 c29 -24 44
-31 50 -23 4 7 -8 24 -31 43 l-37 32 51 34 c28 19 51 41 51 48 0 19 -10 15
-70 -27 l-56 -39 -94 73 c-52 41 -96 78 -97 82 -2 4 58 50 132 102 74 52 135
97 135 101 0 22 -25 9 -147 -77 -75 -53 -142 -96 -149 -97 -20 -2 -224 158
-214 168 13 13 394 284 401 285 4 1 31 -54 62 -121z m-4950 6 c53 -42 97 -80
97 -84 0 -7 -181 -137 -204 -146 -15 -6 -208 139 -205 153 1 8 199 153 209
153 3 0 49 -34 103 -76z m481 -24 c47 -36 85 -67 86 -71 0 -8 -193 -142 -207
-143 -12 -1 -203 143 -203 153 1 3 47 38 103 77 84 59 105 69 119 60 9 -6 55
-40 102 -76z m457 4 c54 -43 99 -80 99 -83 0 -5 -193 -141 -212 -149 -9 -4
-193 138 -197 151 -2 7 191 152 207 156 2 1 48 -33 103 -75z m465 -9 c52 -42
94 -77 94 -79 0 -6 -201 -146 -210 -146 -14 0 -191 143 -188 152 3 7 197 146
206 148 2 0 46 -34 98 -75z m543 -73 l34 -28 -106 -77 -105 -76 -104 82 c-58
45 -105 86 -107 90 -1 5 44 41 101 81 l103 73 75 -58 c41 -32 90 -71 109 -87z
m-2706 -11 c86 -68 157 -124 157 -126 0 -2 -45 -36 -100 -75 l-99 -71 -156
121 c-85 67 -155 125 -155 128 0 4 37 44 82 89 70 71 84 81 98 69 8 -7 86 -68
173 -135z m3115 48 l102 -81 -97 -70 c-54 -38 -103 -72 -110 -75 -7 -3 -59 32
-117 77 l-105 82 102 74 c56 40 107 73 112 73 6 0 56 -36 113 -80z m461 -18
c56 -44 101 -84 99 -88 -2 -7 -107 -86 -171 -128 l-27 -17 -105 83 c-66 51
-102 86 -96 92 15 15 185 136 192 136 4 1 53 -35 108 -78z m1506 -6 c57 -44
104 -82 104 -85 0 -10 -261 -185 -275 -185 -14 0 -223 155 -223 165 0 10 265
189 277 187 7 -1 60 -38 117 -82z m-1017 -12 c50 -40 92 -75 92 -77 0 -6 -196
-145 -209 -148 -13 -3 -211 143 -208 154 4 15 212 156 222 150 5 -3 52 -39
103 -79z m469 -7 c56 -44 100 -83 97 -87 -8 -13 -206 -150 -213 -147 -4 2 -53
39 -108 82 l-102 80 57 41 c31 22 80 57 107 77 28 20 52 36 55 35 3 -1 52 -38
107 -81z m-4003 -76 c47 -36 85 -68 86 -71 0 -3 -46 -37 -102 -76 l-103 -70
-102 80 -103 80 103 73 c86 61 105 71 119 61 9 -7 55 -41 102 -77z m461 1 c52
-41 95 -77 95 -80 0 -7 -205 -151 -214 -151 -3 0 -51 35 -106 79 l-99 78 107
76 c59 42 110 75 114 74 4 -1 50 -35 103 -76z m468 -14 c48 -38 87 -73 87 -77
0 -15 -204 -149 -214 -142 -66 49 -186 147 -186 151 0 12 205 149 215 143 6
-3 49 -37 98 -75z m463 1 c51 -40 93 -76 94 -80 0 -3 -48 -40 -107 -81 l-106
-75 -67 51 c-139 110 -136 107 -120 117 8 5 57 38 109 74 52 36 97 66 99 66 2
0 46 -33 98 -72z m483 -23 c49 -38 90 -73 90 -77 1 -4 -45 -39 -100 -79 -95
-67 -103 -71 -124 -58 -42 26 -195 149 -194 157 0 4 46 39 102 79 85 59 105
69 119 60 9 -7 57 -43 107 -82z m470 -16 l101 -81 -22 -17 c-104 -79 -189
-131 -202 -124 -29 17 -195 148 -195 155 -1 9 191 147 205 147 6 1 57 -35 113
-80z m-3094 -47 c80 -63 145 -117 145 -120 0 -4 -43 -37 -96 -74 l-95 -67
-127 100 c-70 56 -128 105 -130 109 -4 12 138 172 149 168 5 -2 74 -54 154
-116z m3628 -16 c20 -16 37 -32 37 -36 0 -5 -160 -122 -198 -144 -10 -6 -137
84 -210 149 -11 10 8 27 94 88 l107 77 66 -52 c36 -28 83 -65 104 -82z m408
25 l99 -79 -101 -72 c-90 -64 -104 -72 -121 -61 -36 22 -188 144 -188 150 0 8
192 141 202 141 5 0 54 -36 109 -79z m482 -12 l98 -78 -107 -76 c-59 -42 -114
-73 -122 -70 -16 6 -201 148 -201 155 -1 11 215 157 224 152 6 -4 54 -41 108
-83z m1020 10 c56 -44 103 -84 105 -88 2 -7 -267 -197 -275 -194 -24 9 -212
168 -206 174 16 16 258 187 266 188 4 1 53 -35 110 -80z m-543 -25 l110 -87
-106 -74 c-81 -57 -110 -73 -124 -67 -23 12 -209 157 -209 164 0 7 202 149
212 149 4 1 57 -38 117 -85z m-4493 -36 c52 -39 96 -74 98 -78 2 -4 -42 -38
-98 -77 l-102 -71 -95 76 c-52 41 -95 79 -95 83 0 10 175 138 189 139 5 0 52
-32 103 -72z m471 -23 c50 -38 91 -72 91 -75 0 -7 -196 -140 -206 -140 -12 0
-195 146 -195 154 1 16 196 145 208 138 6 -4 52 -38 102 -77z m450 8 c47 -38
92 -73 100 -79 12 -8 -8 -26 -96 -88 l-112 -76 -100 79 -101 80 107 75 c59 42
110 76 112 76 2 0 43 -30 90 -67z m467 -14 c50 -38 94 -74 98 -78 8 -8 -184
-151 -204 -151 -5 0 -52 34 -105 76 l-95 76 38 27 c133 95 169 120 173 121 3
0 46 -32 95 -71z m478 -10 c56 -44 103 -84 105 -89 2 -4 -45 -42 -104 -83
l-107 -75 -108 85 -109 86 63 45 c34 25 82 60 107 78 25 18 46 34 48 34 1 0
48 -36 105 -81z m496 -34 c50 -38 90 -72 91 -75 0 -3 -47 -38 -105 -78 -93
-65 -107 -72 -123 -60 -98 71 -192 152 -184 160 5 5 51 40 103 77 78 57 97 67
111 57 9 -6 57 -42 107 -81z m474 -18 c48 -38 87 -72 87 -76 0 -6 -144 -112
-196 -143 -7 -5 -54 25 -118 76 l-107 84 107 76 c90 64 109 73 123 63 10 -7
56 -43 104 -80z m-3505 -55 c50 -40 92 -75 92 -77 0 -7 -182 -135 -192 -135
-5 0 -52 34 -104 75 -66 53 -92 80 -87 89 5 8 35 50 68 94 l60 80 35 -26 c19
-14 77 -59 128 -100z m3972 44 l99 -78 -105 -75 c-58 -41 -111 -72 -117 -70
-15 6 -191 147 -194 155 -3 9 199 152 210 149 4 -1 52 -37 107 -81z m459 -13
c55 -43 100 -81 100 -84 1 -6 -182 -137 -197 -141 -6 -2 -56 33 -112 76 -86
67 -99 81 -88 92 20 20 181 133 190 134 5 0 53 -35 107 -77z m490 -20 c55 -43
100 -81 101 -85 0 -5 -154 -118 -205 -150 -6 -4 -61 33 -122 81 l-112 88 107
76 c59 42 113 74 119 72 7 -2 57 -39 112 -82z m1022 10 c54 -43 95 -80 91 -84
-4 -3 -66 -47 -139 -98 -85 -60 -137 -90 -145 -85 -48 30 -188 148 -181 154
12 12 267 190 272 190 1 0 48 -35 102 -77z m-540 -30 c60 -48 106 -90 102 -93
-47 -41 -207 -141 -218 -136 -8 3 -58 40 -111 82 -69 56 -92 80 -84 88 11 11
192 143 199 145 1 1 52 -38 112 -86z m-4951 -14 c50 -40 87 -75 83 -79 -32
-28 -186 -130 -193 -128 -16 6 -189 143 -190 150 0 13 184 139 196 134 7 -3
54 -37 104 -77z m545 -89 c4 -6 -189 -140 -202 -140 -14 0 -195 147 -192 156
1 5 45 39 98 75 l96 67 98 -76 c54 -42 100 -78 102 -82z m362 64 c54 -43 99
-78 100 -79 2 -1 -45 -34 -103 -74 l-105 -73 -72 56 c-40 31 -85 66 -101 79
l-29 23 99 71 c54 39 102 72 106 72 3 1 50 -33 105 -75z m468 -6 c52 -40 94
-76 94 -80 1 -9 -197 -148 -210 -148 -14 0 -198 143 -196 152 3 9 199 148 210
148 5 0 51 -33 102 -72z m544 -76 l34 -28 -103 -73 c-57 -40 -109 -70 -117
-67 -8 3 -58 40 -112 83 l-99 77 61 45 c34 24 82 58 106 76 l45 33 75 -59 c42
-32 91 -71 110 -87z m407 47 c57 -45 104 -85 104 -88 0 -7 -172 -131 -201
-145 -13 -6 -41 10 -123 75 l-105 82 57 41 c31 23 80 58 107 78 28 20 51 37
53 37 2 1 50 -36 108 -80z m478 -23 l106 -84 -101 -71 c-56 -40 -105 -73 -108
-74 -11 -3 -212 156 -209 164 3 7 197 149 204 149 1 0 50 -38 108 -84z m474
-17 l102 -80 -106 -76 c-74 -52 -111 -73 -120 -67 -39 27 -193 150 -193 154
-1 6 201 150 209 150 3 0 51 -37 108 -81z m456 -1 c50 -39 97 -77 104 -83 11
-10 -8 -27 -94 -88 l-107 -76 -76 59 c-133 104 -138 109 -121 119 8 5 56 39
105 74 50 36 92 66 94 66 2 1 44 -31 95 -71z m489 -38 l108 -84 -23 -18 c-99
-75 -189 -130 -200 -121 -7 5 -57 45 -111 88 l-97 77 102 74 c57 40 105 72
108 71 3 -1 54 -40 113 -87z m-4804 -71 c1 -3 -42 -36 -94 -73 l-94 -67 -58
47 c-32 26 -60 48 -61 49 -2 2 12 28 32 59 20 31 47 74 61 96 l25 40 94 -73
c52 -39 95 -75 95 -78z m5291 54 l110 -86 -111 -78 -111 -78 -77 59 c-42 33
-91 72 -109 87 l-33 28 108 77 c59 42 109 77 110 77 2 1 52 -38 113 -86z
m-4941 6 c50 -40 91 -75 91 -79 0 -4 -43 -37 -95 -74 l-95 -67 -93 73 c-51 40
-94 77 -95 81 -3 10 167 136 185 137 6 0 52 -32 102 -71z m464 -33 l88 -68
-88 -62 c-48 -34 -94 -65 -101 -70 -8 -5 -48 21 -112 71 -55 43 -100 80 -100
83 1 3 45 35 98 71 78 53 100 64 113 55 8 -6 54 -42 102 -80z m5000 -24 c26
-20 47 -39 47 -42 -1 -3 -48 -38 -105 -78 -66 -46 -110 -70 -117 -66 -51 31
-188 148 -181 155 5 5 53 40 108 78 l99 70 50 -41 c28 -22 72 -57 99 -76z
m-4562 22 c54 -43 99 -80 99 -83 -1 -3 -46 -37 -101 -74 -69 -47 -104 -66
-112 -59 -140 109 -175 139 -176 147 -1 8 171 140 187 144 2 1 48 -33 103 -75z
m463 -16 c52 -40 95 -76 95 -80 1 -3 -44 -38 -100 -77 -87 -62 -102 -70 -118
-59 -79 58 -181 143 -179 149 4 12 181 137 195 138 7 1 55 -32 107 -71z m485
-23 c50 -38 90 -73 91 -76 0 -12 -204 -150 -216 -145 -6 2 -57 40 -112 82
l-100 78 61 45 c34 24 82 59 107 77 37 27 48 31 62 21 9 -7 57 -43 107 -82z
m485 -25 c47 -36 85 -67 85 -70 1 -6 -186 -139 -204 -146 -6 -3 -59 33 -117
79 l-107 83 107 76 c103 73 108 75 129 59 12 -9 60 -45 107 -81z m451 9 c50
-39 96 -76 103 -83 10 -10 -8 -27 -97 -90 l-110 -77 -98 77 c-54 42 -102 80
-106 84 -7 6 198 160 213 160 3 0 46 -32 95 -71z m484 -26 c55 -43 100 -80
100 -83 0 -3 -47 -38 -105 -77 l-105 -73 -105 82 c-57 44 -103 82 -101 84 12
12 204 144 209 144 5 0 53 -35 107 -77z m467 -14 c57 -45 104 -83 104 -85 0
-6 -201 -144 -211 -144 -10 0 -208 152 -208 160 0 5 199 148 208 149 2 1 50
-36 107 -80z m480 -20 c57 -45 104 -85 104 -89 0 -5 -149 -114 -197 -143 -9
-5 -50 20 -124 79 l-110 86 38 27 c139 100 169 120 176 121 5 0 55 -37 113
-81z m-4433 -12 c48 -38 87 -72 87 -76 -1 -3 -43 -35 -95 -70 l-95 -64 -43 34
c-24 19 -66 52 -95 74 -28 22 -50 43 -49 47 4 16 182 136 192 130 5 -3 49 -37
98 -75z m5013 -106 c-3 -3 -49 -37 -105 -75 l-100 -69 -105 83 c-58 45 -106
85 -106 89 1 3 46 38 102 77 l102 71 108 -85 c59 -46 106 -88 104 -91z m-4571
90 c52 -40 95 -76 95 -80 0 -6 -172 -128 -187 -133 -13 -4 -204 145 -200 155
4 12 180 136 189 134 4 -1 50 -35 103 -76z m4998 -49 c26 -20 47 -39 46 -42 0
-3 -48 -38 -106 -79 -96 -66 -108 -72 -127 -61 -29 18 -187 143 -184 146 2 1
52 36 112 78 l109 76 51 -42 c28 -22 72 -57 99 -76z m-4535 19 c45 -35 82 -67
82 -70 -1 -9 -188 -136 -197 -134 -18 5 -193 147 -191 154 2 5 45 38 97 73 79
55 96 63 110 53 9 -7 54 -41 99 -76z m4955 9 c53 -41 96 -78 97 -82 0 -9 -195
-148 -208 -148 -6 0 -56 36 -111 79 l-102 80 108 76 c59 41 110 74 113 73 3
-2 49 -37 103 -78z m-6258 26 l54 -43 -101 -72 c-83 -59 -103 -70 -114 -59
-11 11 -3 31 42 116 30 56 57 102 60 102 3 0 29 -20 59 -44z m1746 -42 c54
-43 99 -80 99 -83 -1 -9 -187 -136 -199 -136 -15 0 -202 147 -199 156 3 8 188
139 196 139 2 0 48 -34 103 -76z m469 -22 c52 -41 95 -78 95 -83 0 -5 -45 -41
-99 -79 l-99 -69 -66 51 c-36 29 -85 68 -108 86 l-43 34 103 73 c56 40 107 70
112 67 6 -3 53 -39 105 -80z m478 -17 c55 -44 100 -83 99 -87 -2 -8 -199 -148
-207 -148 -9 0 -210 161 -210 168 1 9 203 151 211 149 3 -1 51 -38 107 -82z
m484 -26 l97 -76 -42 -30 c-23 -16 -72 -51 -108 -76 l-66 -47 -106 84 -106 84
106 76 c59 41 112 72 117 68 6 -3 55 -41 108 -83z m563 -85 c0 -8 -175 -138
-202 -150 -12 -6 -213 146 -210 158 1 4 49 40 107 81 l105 74 100 -77 c55 -43
100 -81 100 -86z m2785 152 c0 -2 -18 -58 -39 -123 -271 -828 -955 -1633
-1883 -2217 -137 -87 -384 -226 -399 -226 -11 0 -369 281 -369 290 0 13 191
142 203 137 6 -3 95 -71 197 -151 102 -80 189 -146 193 -146 28 0 -20 45 -186
175 -104 81 -187 148 -185 150 40 32 191 135 199 135 5 0 100 -70 210 -156
130 -102 204 -153 210 -147 6 6 -59 63 -185 162 -108 84 -198 156 -201 161 -5
7 185 150 200 150 4 0 97 -70 207 -156 129 -100 204 -152 210 -146 6 6 -62 66
-192 167 l-201 157 103 73 c87 62 105 71 118 60 8 -7 96 -76 195 -154 124 -97
182 -138 189 -131 8 8 8 13 0 18 -68 45 -373 296 -367 302 45 41 209 148 217
141 6 -4 87 -68 180 -141 158 -124 190 -145 198 -129 2 4 -76 68 -172 144 -96
75 -179 140 -183 145 -7 6 140 118 201 154 8 5 69 -37 170 -115 86 -67 163
-127 170 -132 8 -6 16 -7 22 -1 6 6 -54 59 -155 138 -91 71 -165 132 -165 136
0 3 45 39 100 78 l100 72 139 -110 c129 -103 161 -123 161 -102 0 5 -61 57
-135 116 -75 59 -133 111 -130 116 9 14 193 142 202 141 4 -1 56 -40 116 -86
59 -47 112 -85 117 -85 25 0 2 25 -100 106 -60 48 -108 89 -106 91 1 2 50 36
106 77 l104 73 80 -63 c52 -40 83 -59 87 -52 4 7 -23 36 -67 71 -42 33 -72 63
-67 67 20 19 194 140 199 140 4 0 22 -11 40 -25 23 -17 35 -22 40 -14 4 7 -4
20 -19 31 -15 11 -27 23 -27 28 0 5 36 34 80 65 75 53 95 75 69 75 -7 0 -50
-27 -96 -60 l-84 -60 -110 86 c-61 47 -109 87 -107 89 2 1 52 37 111 79 l108
76 93 -75 c88 -71 116 -87 116 -66 0 5 -40 41 -90 80 -49 40 -90 73 -90 76 0
8 198 145 210 145 7 0 26 -12 42 -26 44 -36 60 -15 18 23 l-33 29 49 36 c45
34 64 44 64 34z m-2411 -86 c55 -44 101 -82 101 -84 0 -5 -199 -146 -207 -146
-12 0 -203 155 -200 163 3 9 188 146 198 147 4 0 52 -36 108 -80z m-3935 -16
c47 -37 86 -71 86 -74 0 -4 -45 -37 -99 -74 l-99 -68 -96 77 -96 77 97 69 c54
38 103 67 109 65 7 -3 51 -35 98 -72z m4406 0 c124 -99 118 -91 90 -112 -14
-9 -61 -43 -106 -74 l-81 -57 -111 86 -111 87 57 41 c111 80 147 104 157 105
6 0 53 -34 105 -76z m-3975 -15 c50 -38 94 -74 98 -78 7 -7 -171 -141 -188
-141 -9 0 -195 151 -195 159 0 8 172 130 185 130 6 1 51 -31 100 -70z m4461
-10 c57 -45 104 -85 104 -89 0 -5 -149 -114 -197 -143 -9 -6 -46 18 -116 73
-56 45 -102 86 -102 91 0 7 192 147 204 149 2 0 50 -37 107 -81z m-4006 -14
c52 -41 95 -77 95 -80 0 -11 -189 -136 -200 -131 -16 6 -197 148 -193 151 17
15 193 135 197 135 3 0 49 -34 101 -75z m4543 -58 c15 -12 27 -24 27 -28 0 -4
-45 -39 -101 -78 l-101 -72 -72 56 c-126 97 -133 104 -116 114 8 6 55 39 105
74 l90 64 70 -55 c38 -30 82 -64 98 -75z m407 46 c54 -43 99 -81 100 -85 0 -3
-48 -40 -106 -82 -90 -64 -109 -73 -123 -63 -114 82 -191 151 -181 161 17 18
194 144 203 145 4 1 52 -34 107 -76z m-4495 -12 c52 -41 95 -77 95 -80 0 -3
-44 -37 -96 -74 l-96 -68 -71 55 c-40 30 -87 68 -105 83 l-34 28 98 68 c54 37
102 66 106 65 4 -2 50 -36 103 -77z m461 -22 c57 -44 104 -82 104 -84 0 -2
-45 -35 -100 -74 l-101 -71 -105 82 c-57 45 -103 85 -102 89 4 10 181 138 191
139 5 0 56 -36 113 -81z m470 -21 c57 -45 103 -85 102 -90 -2 -4 -47 -38 -101
-77 l-99 -70 -109 86 -109 86 38 27 c125 89 167 119 170 120 2 0 50 -37 108
-82z m472 -15 c54 -43 98 -82 98 -88 0 -5 -45 -42 -99 -81 l-100 -71 -104 80
c-57 44 -103 83 -103 86 0 5 201 151 207 151 2 0 47 -35 101 -77z m-3098 63
c0 -3 -4 -8 -10 -11 -5 -3 -10 -1 -10 4 0 6 5 11 10 11 6 0 10 -2 10 -4z
m3585 -88 c52 -40 94 -75 94 -78 0 -7 -202 -145 -213 -145 -13 0 -205 149
-203 157 5 16 202 148 215 143 7 -3 56 -38 107 -77z m468 -4 c53 -42 97 -80
97 -84 0 -8 -179 -136 -203 -146 -10 -3 -51 22 -116 73 -55 43 -100 80 -100
83 0 7 202 149 214 149 6 1 54 -33 108 -75z m-3926 -8 l93 -75 -116 -81 -115
-81 -55 41 c-30 24 -54 46 -54 51 0 5 14 43 32 85 29 71 83 134 113 134 5 0
52 -34 102 -74z m4406 -18 c53 -43 97 -81 96 -85 -3 -10 -191 -143 -202 -143
-9 0 -211 159 -214 168 -3 12 201 150 212 144 6 -3 54 -41 108 -84z m-3962 5
c54 -43 98 -80 98 -83 0 -5 -183 -132 -198 -138 -8 -3 -194 145 -198 157 -2 5
186 141 196 141 2 0 47 -35 102 -77z m512 -76 c15 -12 27 -24 27 -27 0 -4 -43
-37 -95 -74 l-96 -67 -92 72 c-51 39 -96 75 -100 79 -5 4 35 39 90 78 l98 69
70 -55 c38 -30 82 -64 98 -75z m3925 52 c56 -44 102 -83 102 -87 0 -8 -199
-148 -207 -146 -13 2 -212 160 -210 166 2 8 199 148 207 148 3 0 51 -36 108
-81z m-3489 -62 l53 -41 -28 -23 c-16 -13 -61 -45 -100 -72 l-70 -49 -102 79
c-56 44 -102 83 -102 87 1 4 45 37 98 73 l97 66 50 -40 c28 -22 74 -58 104
-80z m3961 47 c52 -42 96 -77 98 -79 2 -2 -45 -37 -104 -79 l-107 -75 -79 62
c-44 34 -89 70 -101 79 l-22 17 25 18 c85 62 186 132 190 133 3 0 48 -34 100
-76z m454 -6 c50 -39 97 -77 104 -83 11 -10 -6 -26 -88 -84 -55 -39 -104 -71
-109 -71 -4 0 -54 36 -110 81 l-102 80 103 74 c57 41 105 74 107 74 2 1 44
-31 95 -71z m-4003 -32 c116 -91 118 -76 -16 -169 l-80 -55 -108 85 -108 85
98 69 c54 38 101 68 105 66 4 -1 53 -38 109 -81z m455 -17 c52 -39 98 -77 104
-84 8 -10 -13 -30 -89 -84 l-101 -72 -102 82 c-57 45 -104 85 -106 89 -3 9
177 139 192 140 5 0 51 -32 102 -71z m482 -30 c57 -45 100 -85 95 -89 -9 -8
-172 -122 -190 -133 -7 -5 -54 25 -117 75 -58 45 -104 83 -103 84 83 61 203
144 207 144 3 0 51 -37 108 -81z m473 -16 c54 -43 98 -80 98 -83 0 -3 -47 -37
-105 -77 l-104 -72 -105 81 c-58 45 -102 85 -98 89 22 20 198 139 206 139 5 0
53 -35 108 -77z m473 -15 c52 -40 95 -76 95 -79 1 -7 -181 -137 -203 -145 -12
-5 -215 142 -215 156 0 11 205 149 216 145 6 -2 54 -37 107 -77z m-3474 -4
c52 -42 96 -79 97 -82 2 -4 -19 -21 -45 -39 -26 -17 -77 -52 -114 -78 l-66
-46 -100 78 c-56 43 -101 80 -101 83 0 5 220 159 229 159 3 1 48 -33 100 -75z
m3954 -9 c58 -44 105 -82 105 -85 1 -3 -48 -39 -108 -81 l-109 -77 -106 84
c-59 45 -106 87 -105 91 3 11 202 152 211 150 4 -1 55 -38 112 -82z m-3495
-16 c50 -40 88 -76 85 -80 -2 -4 -47 -37 -100 -74 l-95 -66 -100 80 -99 79 97
70 c54 39 104 69 110 67 7 -2 53 -37 102 -76z m3969 -6 c54 -43 99 -82 101
-86 2 -8 -190 -147 -202 -147 -7 0 -207 157 -210 165 -2 7 192 145 204 145 5
0 53 -35 107 -77z m-3529 -10 c54 -43 97 -82 97 -88 0 -17 -176 -137 -192
-131 -8 3 -57 40 -109 82 l-95 76 97 69 c54 37 100 68 102 68 2 1 47 -34 100
-76z m3996 -4 c50 -38 94 -74 98 -78 8 -8 -185 -151 -204 -151 -14 0 -202 150
-196 157 11 10 202 143 207 143 3 0 46 -32 95 -71z m473 -15 c53 -42 98 -80
100 -84 1 -4 -43 -40 -100 -80 -118 -83 -94 -85 -230 22 l-89 70 103 74 c57
40 107 73 111 74 5 0 52 -34 105 -76z m-4002 -16 c58 -45 101 -84 97 -88 -47
-41 -187 -131 -196 -127 -24 9 -208 159 -202 165 15 16 181 131 189 131 4 1
55 -36 112 -81z m-1767 14 l24 -19 -34 -25 c-83 -61 -123 -88 -125 -85 -2 2
11 44 28 94 l32 92 25 -19 c14 -11 37 -28 50 -38z m6247 -23 c57 -45 104 -84
104 -88 0 -3 -22 -20 -48 -37 -26 -18 -72 -50 -103 -72 l-55 -41 -108 86 c-91
72 -105 88 -94 100 21 20 182 132 192 133 4 0 55 -37 112 -81z m-4013 -22
l106 -84 -100 -69 c-54 -38 -101 -68 -104 -67 -12 3 -216 166 -213 169 18 17
186 133 194 134 6 0 58 -38 117 -83z m494 -48 l72 -57 -100 -71 c-64 -45 -105
-68 -114 -64 -37 22 -193 149 -192 156 2 5 45 39 97 76 l95 68 35 -26 c19 -14
67 -51 107 -82z m441 2 c50 -40 90 -77 87 -82 -3 -5 -49 -39 -102 -76 -67 -46
-100 -64 -109 -57 -40 28 -193 150 -194 154 0 12 206 148 215 141 5 -4 52 -40
103 -80z m460 -8 c53 -42 99 -78 102 -80 6 -5 -20 -25 -126 -98 l-82 -57 -100
79 c-56 43 -100 82 -99 86 3 10 188 146 200 147 4 0 51 -35 105 -77z m489 -27
l101 -80 -103 -73 c-57 -40 -108 -73 -114 -73 -5 0 -57 37 -115 83 l-105 84
107 75 c59 42 112 73 118 70 5 -4 56 -43 111 -86z m-3967 5 l100 -78 -163
-114 c-89 -62 -198 -138 -241 -168 l-79 -55 6 48 c4 26 21 106 38 178 l32 129
96 69 c53 38 100 69 104 69 4 1 52 -34 107 -78z m476 2 c110 -90 113 -73 -37
-176 l-95 -66 -95 76 c-52 41 -94 79 -94 83 0 9 204 158 218 159 5 1 51 -34
103 -76z m3977 -23 c53 -41 96 -77 96 -80 0 -8 -206 -150 -217 -150 -19 0
-214 162 -205 171 33 33 209 147 218 141 7 -4 55 -41 108 -82z m-3525 4 c53
-42 98 -80 100 -84 2 -4 -28 -29 -65 -56 -37 -26 -82 -58 -98 -70 l-31 -23
-99 79 c-55 44 -100 85 -100 91 0 10 172 137 188 138 5 1 52 -33 105 -75z
m560 -114 c3 -7 -180 -140 -193 -140 -3 0 -51 37 -107 81 -115 93 -116 78 11
167 l85 59 100 -79 c56 -44 102 -83 104 -88z m3427 98 c52 -40 94 -76 94 -80
1 -5 -154 -117 -195 -141 -7 -4 -57 28 -113 72 l-101 80 102 70 c56 39 106 71
111 71 5 0 51 -33 102 -72z m465 -14 c52 -42 96 -79 98 -83 2 -6 -150 -119
-195 -145 -7 -4 -55 28 -116 76 l-105 83 57 40 c110 80 146 104 156 105 6 0
53 -34 105 -76z m480 -21 c60 -47 109 -88 107 -89 -1 -2 -49 -37 -107 -78
l-104 -75 -40 32 c-23 19 -71 57 -108 86 -38 29 -68 56 -67 59 0 6 196 149
206 151 2 1 52 -38 113 -86z m-3931 -71 l35 -29 -98 -68 c-113 -78 -90 -81
-227 27 -103 82 -105 68 21 156 l84 59 76 -58 c41 -32 90 -71 109 -87z m391
29 c114 -90 116 -72 -17 -165 l-83 -57 -105 82 -105 82 62 45 c35 24 77 55 93
68 17 13 36 23 43 24 6 0 57 -35 112 -79z m465 -23 c52 -40 94 -75 94 -78 1
-10 -184 -134 -200 -134 -14 0 -208 143 -208 154 0 12 195 139 207 135 8 -3
56 -38 107 -77z m462 -14 c54 -43 99 -78 101 -79 5 -4 -196 -145 -207 -145 -6
0 -56 36 -111 79 l-100 79 98 71 c53 38 102 70 109 70 6 1 55 -33 110 -75z
m476 -24 c53 -41 96 -78 97 -82 0 -3 -45 -39 -101 -78 l-101 -71 -95 73 c-52
40 -102 79 -111 86 -15 11 -14 14 8 30 144 102 187 129 196 123 6 -3 54 -40
107 -81z m-3493 -12 c50 -39 87 -75 83 -79 -18 -15 -731 -509 -736 -509 -3 0
-4 8 -2 18 2 9 11 79 21 154 9 75 20 141 23 146 14 22 497 352 508 348 7 -3
53 -38 103 -78z m474 1 c55 -45 99 -84 97 -87 -9 -14 -210 -152 -221 -152 -14
0 -213 160 -207 166 15 15 214 153 221 153 4 1 54 -35 110 -80z m3500 -165
c-58 -41 -109 -74 -113 -74 -9 0 -211 158 -211 165 0 2 48 38 106 79 l106 75
108 -86 109 -86 -105 -73z m-3036 141 c56 -44 101 -82 101 -85 0 -3 -46 -37
-101 -76 l-102 -71 -102 81 c-57 44 -102 84 -101 88 3 10 190 147 198 145 3
-1 51 -38 107 -82z m3512 6 l101 -80 -100 -70 c-55 -39 -106 -74 -114 -76 -11
-5 -207 138 -207 150 0 4 211 155 217 155 2 0 48 -36 103 -79z m473 -22 l98
-78 -100 -70 c-55 -39 -104 -71 -110 -71 -11 0 -210 151 -210 160 0 11 205
147 214 142 6 -3 54 -41 108 -83z m-3522 -15 c60 -48 108 -88 107 -89 -45 -35
-191 -135 -198 -135 -13 0 -211 157 -210 167 0 7 178 141 188 143 2 0 53 -39
113 -86z m3990 0 c60 -47 109 -87 109 -89 0 -2 -45 -35 -101 -75 -64 -46 -106
-70 -116 -66 -18 7 -212 159 -212 166 0 4 199 148 207 149 2 1 53 -38 113 -85z
m-3518 -37 c48 -38 87 -72 87 -75 -1 -4 -44 -37 -97 -74 l-96 -67 -76 59 c-42
33 -89 70 -105 83 l-29 23 99 71 c80 57 102 68 115 59 8 -6 54 -42 102 -79z
m446 -14 c55 -43 100 -81 100 -84 1 -7 -185 -139 -195 -139 -12 0 -204 155
-202 162 4 9 180 137 190 137 5 1 53 -34 107 -76z m469 -28 c50 -38 91 -73 91
-77 1 -3 -43 -38 -98 -76 l-99 -70 -105 83 -105 82 100 71 c60 43 106 68 113
64 7 -4 53 -38 103 -77z m459 -11 c54 -42 102 -80 106 -84 9 -8 -182 -150
-200 -150 -6 0 -57 36 -113 81 -88 70 -100 83 -88 95 18 18 181 133 190 134 3
0 50 -34 105 -76z m-2931 -118 c-3 -12 -957 -689 -962 -683 -2 2 -7 73 -11
159 l-6 154 388 271 389 270 102 -81 c57 -44 102 -85 100 -90z m3407 92 c56
-44 102 -85 102 -90 0 -4 -45 -40 -99 -78 -85 -60 -102 -68 -115 -57 -9 7 -58
46 -109 86 l-92 73 102 73 c57 40 104 74 106 74 1 1 48 -36 105 -81z m-3012
-19 c56 -45 97 -85 92 -89 -21 -18 -212 -150 -218 -150 -14 0 -204 155 -202
164 4 13 200 154 215 155 7 1 58 -36 113 -80z m3487 5 c53 -42 97 -80 97 -85
0 -8 -195 -149 -207 -149 -10 0 -198 150 -198 158 1 6 197 148 208 151 2 1 47
-33 100 -75z m487 -16 c52 -40 94 -76 95 -80 0 -5 -160 -122 -205 -150 -6 -4
-59 31 -117 77 l-107 83 107 75 c59 42 113 74 120 72 7 -3 55 -37 107 -77z
m-3502 -21 c54 -44 95 -83 90 -87 -4 -4 -50 -37 -101 -74 l-93 -67 -110 87
c-60 48 -106 91 -102 95 38 34 198 137 207 132 6 -4 55 -42 109 -86z m3976 -4
c55 -43 100 -81 101 -85 0 -4 -45 -39 -100 -79 -70 -50 -104 -68 -113 -62
-181 141 -208 166 -195 179 33 33 184 133 195 129 7 -2 57 -39 112 -82z
m-3445 -76 l29 -23 -102 -73 -103 -72 -97 78 c-53 43 -98 82 -100 86 -1 5 42
40 95 77 l97 69 76 -59 c42 -33 89 -70 105 -83z m384 32 l103 -81 -98 -69
c-54 -38 -101 -68 -105 -66 -12 4 -209 159 -206 162 16 14 193 135 198 135 3
0 52 -36 108 -81z m459 -23 l102 -80 -37 -26 c-20 -15 -66 -47 -101 -72 l-65
-46 -90 71 c-50 39 -97 76 -104 82 -11 10 5 26 85 84 54 38 100 69 103 68 3
-1 52 -38 107 -81z m470 -29 l102 -80 -102 -72 -102 -71 -75 57 c-41 32 -90
71 -109 87 l-34 28 99 71 c54 39 104 68 109 65 6 -3 56 -42 112 -85z m469 -18
c57 -45 102 -84 100 -88 -2 -3 -49 -37 -105 -75 l-100 -69 -73 56 c-40 31 -88
69 -107 85 l-35 29 100 71 c54 39 103 71 108 71 4 1 55 -36 112 -80z m-3033
-32 l97 -78 -577 -408 c-468 -330 -579 -404 -585 -391 -11 28 -40 227 -36 250
2 14 150 125 493 369 270 191 495 345 500 343 6 -3 54 -41 108 -85z m3500 13
c53 -41 96 -77 97 -80 0 -3 -46 -37 -102 -76 l-102 -72 -75 59 c-42 32 -88 69
-104 81 l-27 23 102 72 c57 40 106 71 109 70 3 -1 49 -36 102 -77z m-2980 -50
c54 -43 65 -56 55 -66 -7 -7 -57 -44 -112 -82 l-99 -70 -101 80 c-55 44 -105
84 -110 88 -4 4 43 44 105 88 l114 81 40 -33 c22 -18 70 -57 108 -86z m3445
44 c53 -42 101 -80 105 -84 7 -6 -126 -107 -199 -152 -7 -5 -54 26 -118 76
l-107 84 108 76 c59 41 109 75 111 76 2 0 47 -34 100 -76z m495 -23 c59 -47
107 -87 107 -90 -1 -11 -198 -146 -213 -146 -9 0 -63 38 -122 83 l-106 84 58
42 c32 23 81 58 108 78 28 20 52 36 55 35 3 -1 54 -40 113 -86z m-3500 -24
c48 -38 85 -73 82 -77 -7 -11 -191 -140 -200 -140 -3 0 -51 36 -106 81 l-100
80 103 73 c83 59 106 71 119 62 8 -6 54 -42 102 -79z m447 -12 c52 -41 95 -79
95 -85 0 -15 -186 -142 -201 -136 -8 3 -57 40 -109 82 l-95 76 97 69 c54 37
103 68 108 68 6 1 53 -33 105 -74z m458 -26 c57 -45 100 -85 95 -89 -4 -4 -48
-35 -97 -70 -78 -56 -91 -62 -108 -51 -36 23 -188 144 -188 150 1 6 181 139
190 140 3 0 51 -36 108 -80z m569 -114 c-25 -22 -193 -135 -199 -135 -17 0
-218 164 -211 171 5 4 50 36 101 72 l94 66 109 -86 c60 -48 108 -87 106 -88z
m359 63 c57 -45 104 -85 104 -88 0 -6 -173 -130 -192 -138 -11 -5 -220 159
-213 167 7 7 188 139 193 140 2 1 50 -36 108 -81z m569 -98 c5 -8 -183 -142
-201 -144 -13 -1 -204 142 -204 153 1 3 47 38 103 77 l102 71 98 -75 c54 -42
100 -79 102 -82z m373 55 c117 -92 120 -71 -25 -171 l-81 -56 -106 83 c-58 45
-104 84 -102 86 15 16 202 142 206 140 3 -1 52 -38 108 -82z m-3504 -12 l109
-87 -24 -18 c-13 -10 -298 -213 -633 -451 -540 -382 -667 -479 -601 -453 10 4
302 208 648 454 346 246 632 446 634 445 3 0 49 -36 104 -79 76 -61 96 -81 86
-90 -6 -7 -298 -213 -647 -460 -349 -246 -637 -449 -639 -451 -3 -2 0 -8 5
-13 7 -7 230 146 655 446 354 251 649 458 656 461 11 4 211 -145 212 -158 1
-4 -236 -175 -526 -380 -291 -205 -581 -411 -646 -457 -77 -55 -115 -88 -109
-94 6 -6 222 141 613 417 332 235 624 442 649 461 l46 33 102 -81 c82 -65 100
-84 90 -94 -7 -7 -283 -203 -614 -436 -330 -232 -600 -427 -600 -433 1 -5 6
-10 12 -9 5 1 286 196 623 434 559 395 615 432 634 420 52 -32 196 -155 190
-161 -5 -3 -272 -192 -595 -419 -324 -226 -588 -415 -588 -420 0 -4 -39 7 -87
25 -379 143 -681 343 -905 600 -43 49 -78 94 -78 100 0 5 -14 54 -32 109 -27
83 -30 99 -17 107 7 5 271 191 584 413 314 222 572 405 575 405 3 1 54 -38
114 -86z m3987 -9 c60 -47 109 -86 109 -88 0 -4 -205 -146 -214 -148 -11 -1
-225 165 -223 174 3 9 200 148 210 148 5 0 58 -39 118 -86z m-3500 -1 c54 -43
98 -80 98 -83 0 -3 -49 -40 -110 -83 -96 -67 -112 -76 -128 -65 -9 7 -56 44
-104 82 l-87 69 63 45 c34 25 82 60 107 78 25 18 49 34 54 34 4 0 52 -35 107
-77z m459 -19 c52 -42 96 -79 98 -84 1 -4 -43 -40 -99 -79 l-101 -71 -97 77
c-54 43 -98 83 -99 88 -2 11 176 144 193 144 6 1 53 -33 105 -75z m461 -21
c54 -43 99 -81 99 -85 0 -3 -45 -38 -99 -77 l-100 -70 -100 81 c-56 44 -101
83 -101 86 1 6 190 142 199 142 1 0 48 -35 102 -77z m472 -37 c54 -43 97 -79
95 -81 -2 -2 -46 -33 -98 -70 -108 -77 -87 -80 -222 28 -73 58 -86 73 -75 84
34 35 183 130 192 124 6 -5 54 -43 108 -85z m520 -70 c20 -16 37 -32 37 -36 0
-7 -185 -140 -195 -140 -8 0 -206 158 -206 166 -1 3 43 37 97 75 l97 68 66
-52 c36 -28 83 -65 104 -81z m402 25 c52 -41 95 -77 95 -81 0 -4 -45 -37 -99
-74 l-99 -68 -101 77 c-56 43 -101 81 -101 84 1 9 194 140 202 138 4 -1 50
-35 103 -76z m478 -24 l97 -76 -106 -75 -106 -75 -77 59 c-42 33 -89 71 -106
84 l-30 25 25 18 c124 90 187 130 195 123 6 -4 54 -42 108 -83z m467 -24 c61
-48 107 -90 103 -94 -5 -3 -50 -37 -101 -73 -63 -45 -97 -64 -105 -58 -7 5
-57 44 -112 87 -55 42 -101 80 -102 84 -2 6 187 141 199 141 4 0 57 -39 118
-87z m-3017 -27 c48 -38 84 -72 82 -76 -8 -13 -205 -150 -216 -150 -10 0 -207
152 -208 160 0 3 50 40 111 82 94 65 114 75 128 65 9 -7 55 -43 103 -81z m448
-7 c55 -44 97 -84 94 -89 -7 -11 -191 -140 -200 -140 -3 0 -51 36 -106 81
l-100 80 103 74 c57 41 104 74 106 74 2 1 48 -35 103 -80z m465 -20 c57 -45
104 -85 104 -89 0 -4 -46 -39 -101 -78 l-101 -71 -104 82 c-56 45 -102 86
-101 90 2 7 186 145 195 147 2 0 50 -37 108 -81z m501 -59 c40 -30 72 -57 72
-60 0 -3 -45 -36 -100 -73 l-99 -68 -105 82 c-58 45 -105 85 -105 88 1 3 44
36 98 72 l97 67 35 -27 c20 -14 68 -51 107 -81z m428 1 c52 -40 95 -77 95 -81
0 -7 -185 -140 -195 -140 -3 0 -51 36 -106 79 l-100 79 33 25 c99 72 164 116
170 114 4 -1 50 -35 103 -76z m450 -12 c50 -39 96 -76 103 -84 11 -10 -4 -25
-88 -84 l-101 -71 -102 81 c-56 44 -103 83 -104 87 -2 7 186 142 197 142 3 0
46 -32 95 -71z m486 -30 c57 -44 108 -84 112 -89 5 -4 -15 -25 -45 -47 -29
-21 -76 -55 -104 -75 l-50 -37 -117 91 -117 91 37 27 c136 97 169 119 174 120
3 0 52 -36 110 -81z m-2560 -46 c54 -43 98 -80 98 -83 0 -3 -50 -40 -110 -83
l-111 -78 -97 78 c-53 43 -98 82 -100 86 -2 8 197 155 213 156 4 1 52 -34 107
-76z m468 -23 c55 -44 101 -82 101 -85 0 -5 -199 -145 -206 -145 -11 0 -200
155 -202 165 -2 11 176 144 194 145 6 0 57 -36 113 -80z m466 -20 c55 -44 101
-83 102 -87 1 -5 -43 -39 -99 -77 -116 -79 -93 -82 -229 27 l-88 70 37 27
c134 96 168 119 172 120 3 0 50 -36 105 -80z m469 -32 c52 -40 95 -75 95 -78
0 -3 -45 -36 -100 -73 l-99 -68 -100 78 c-55 43 -99 81 -98 85 5 15 183 137
195 133 6 -2 54 -37 107 -77z m454 -19 c56 -44 100 -84 97 -89 -3 -5 -48 -38
-100 -75 l-94 -66 -103 82 c-57 45 -103 85 -102 88 0 6 185 140 194 140 3 1
51 -36 108 -80z m573 -109 c18 -15 15 -19 -73 -81 -51 -36 -98 -68 -103 -71
-12 -7 -230 159 -230 174 0 5 43 40 95 77 l95 68 98 -76 c54 -42 107 -83 118
-91z m-2193 11 c51 -41 92 -78 92 -81 0 -4 -19 -20 -42 -37 -24 -16 -72 -50
-109 -76 l-65 -46 -107 86 -108 85 112 79 c66 46 116 76 123 71 7 -4 53 -40
104 -81z m475 -26 l97 -77 -105 -75 c-64 -45 -110 -71 -118 -67 -28 17 -197
157 -197 163 1 13 205 147 215 141 6 -4 54 -42 108 -85z m462 -14 c52 -40 95
-76 95 -80 0 -3 -15 -16 -33 -28 -17 -11 -64 -44 -103 -71 l-70 -51 -95 75
c-52 42 -98 79 -102 84 -9 8 191 152 205 148 4 -2 50 -36 103 -77z m458 -24
l106 -84 -94 -66 c-51 -37 -97 -68 -102 -69 -12 -4 -214 153 -211 163 3 9 179
137 189 138 3 1 53 -37 112 -82z m468 -28 c57 -44 108 -84 112 -89 5 -4 -37
-40 -92 -80 l-102 -72 -47 37 c-26 20 -77 60 -114 88 -37 29 -66 55 -65 59 3
10 181 137 193 138 6 0 57 -36 115 -81z m-1635 -91 c57 -46 104 -85 104 -88
-1 -7 -213 -150 -223 -150 -12 0 -209 161 -204 166 7 8 212 153 215 153 2 1
51 -36 108 -81z m507 -51 c32 -25 57 -50 55 -54 -3 -9 -175 -132 -195 -140 -7
-3 -58 31 -113 75 l-101 81 107 75 107 76 41 -33 c23 -18 67 -54 99 -80z m422
22 c50 -39 96 -76 103 -84 11 -10 -4 -25 -88 -84 -55 -39 -105 -71 -111 -71
-18 0 -211 162 -202 170 16 15 197 140 202 140 3 0 47 -32 96 -71z m490 -51
c58 -45 105 -84 105 -87 0 -10 -184 -136 -196 -135 -11 1 -236 175 -232 179
46 39 196 134 206 130 7 -2 60 -42 117 -87z m-1566 -179 c1 -4 -1017 -723
-1064 -751 -19 -12 -328 67 -323 83 2 5 268 195 592 422 l590 415 102 -82 c57
-44 103 -84 103 -87z m381 70 c55 -45 99 -83 98 -84 -2 -1 -52 -37 -111 -79
l-109 -77 -97 78 c-53 43 -98 82 -100 86 -2 8 196 154 211 156 4 1 53 -36 108
-80z m-2900 41 c12 -16 19 -30 16 -30 -2 0 -14 14 -26 30 -12 17 -19 30 -16
30 2 0 14 -13 26 -30z m3369 -57 c55 -43 100 -81 100 -84 1 -8 -197 -149 -209
-149 -13 0 -202 156 -201 166 2 12 182 142 198 143 7 1 58 -34 112 -76z m521
-57 c41 -32 76 -61 77 -65 1 -3 -45 -39 -103 -79 -68 -47 -109 -70 -118 -65
-7 4 -60 46 -119 93 l-105 84 56 41 c31 22 80 57 107 76 l50 36 40 -31 c22
-17 74 -57 115 -90z m518 -71 l183 -144 -88 -44 c-164 -81 -127 -88 -317 60
-91 70 -165 130 -165 133 0 6 190 140 198 140 3 -1 88 -66 189 -145z m-1750
-33 c76 -61 91 -77 80 -88 -7 -7 -198 -142 -423 -301 -226 -158 -411 -292
-412 -298 -1 -5 4 -9 11 -9 7 1 203 135 436 299 384 271 425 297 443 285 52
-32 196 -155 190 -161 -5 -3 -141 -100 -303 -214 -162 -114 -300 -213 -306
-221 -14 -17 -283 -19 -480 -4 -125 10 -394 46 -401 54 -8 8 1052 744 1062
738 6 -3 52 -39 103 -80z m507 -36 c33 -27 60 -53 60 -57 0 -15 -209 -158
-220 -150 -5 4 -54 43 -107 85 l-98 78 112 79 111 79 41 -33 c23 -18 68 -55
101 -81z m446 3 c63 -50 115 -94 116 -97 1 -4 -45 -40 -103 -80 -72 -51 -108
-71 -117 -65 -78 60 -217 176 -217 181 1 5 188 143 206 151 1 1 53 -40 115
-90z m549 -75 c89 -70 157 -130 153 -135 -22 -20 -532 -219 -564 -219 -6 0
-56 36 -110 79 l-99 79 97 69 c54 38 104 73 110 77 8 4 60 -31 137 -93 69 -56
130 -101 136 -101 27 0 0 28 -115 119 l-125 100 103 75 c56 41 105 75 109 75
4 1 80 -56 168 -125z m-4513 -10 c127 -26 147 -38 211 -123 149 -199 512 -503
812 -679 52 -30 98 -60 101 -65 14 -20 -15 -68 -56 -97 -58 -40 -169 -82 -340
-130 -207 -57 -954 -294 -1310 -414 -431 -145 -791 -281 -1113 -420 -111 -48
-166 -66 -197 -66 -56 0 -75 8 -75 30 0 10 102 135 228 277 510 580 918 1065
1157 1378 142 184 189 231 279 275 102 51 181 59 303 34z m3725 -85 c62 -50
114 -94 115 -98 1 -3 -46 -40 -104 -82 l-107 -76 -118 95 c-65 52 -117 96
-115 99 6 5 212 152 214 153 2 0 53 -41 115 -91z m-129 -279 c-4 -4 -54 -40
-110 -79 -57 -40 -103 -76 -103 -80 0 -19 -600 -90 -620 -74 -3 3 2 8 10 13 8
5 145 101 304 213 l290 204 118 -95 c66 -52 115 -98 111 -102z m374 83 c58
-47 90 -79 82 -82 -102 -35 -305 -86 -307 -77 -2 6 -23 26 -48 45 -25 19 -41
37 -37 41 13 12 207 150 211 150 1 0 46 -35 99 -77z m-255 -174 c-4 -4 -69
-20 -145 -36 -76 -17 -134 -26 -128 -20 5 5 49 37 97 72 l88 63 47 -36 c26
-21 44 -40 41 -43z"/>
</g>
</svg>
