<?xml version="1.0" standalone="no"?><!DOCTYPE svg PUBLIC "-//W3C//DTD SVG 1.1//EN" "http://www.w3.org/Graphics/SVG/1.1/DTD/svg11.dtd"><svg class="icon" height="512" viewBox="0 0 1024 1024" version="1.1" xmlns="http://www.w3.org/2000/svg"><path d="M202.016 96.672m-95.488 0a95.488 95.488 0 1 0 190.976 0 95.488 95.488 0 1 0-190.976 0ZM462.72 398.048a51.648 51.648 0 0 0-66.048-31.2c-43.168 15.488-102.08 28.672-138.176 3.936-16.352-11.232-26.496-29.504-32.64-47.104A86.08 86.08 0 0 0 65.28 263.328C60.224 273.92 15.936 372.704 15.936 571.552c0 23.552 9.504 44.928 24.928 60.544l14.048 341.088A52 52 0 0 0 103.36 1022.72a51.712 51.712 0 0 0 54.848-48.416l22.912-368.736c4.512-10.368 7.008-21.952 7.008-33.984 0-46.944 2.848-86.624 6.912-119.264l4 2.912c31.264 21.792 68.448 32.704 111.168 32.704 36.448 0 76.992-7.968 121.344-23.872a51.584 51.584 0 0 0 31.168-66.016zM822.016 96.672m-95.488 0a95.488 95.488 0 1 0 190.976 0 95.488 95.488 0 1 0-190.976 0ZM958.688 263.328a86.08 86.08 0 1 0-160.576 60.352c-6.112 17.6-16.256 35.872-32.672 47.104-36.064 24.768-95.008 11.552-138.144-3.936a51.616 51.616 0 1 0-34.848 97.248c44.384 15.904 84.864 23.872 121.376 23.872 42.688 0 79.872-10.912 111.2-32.704l4-2.912c4.032 32.672 6.912 72.256 6.912 119.232 0 12.096 2.496 23.616 7.008 34.016l22.912 368.736a51.712 51.712 0 0 0 54.816 48.416 51.968 51.968 0 0 0 48.48-49.536l14.016-341.088a85.824 85.824 0 0 0 24.928-60.576c-0.064-198.848-44.352-297.632-49.408-308.224zM528.64 623.68a10.88 10.88 0 0 0-12.224-2.56 11.2 11.2 0 0 0-6.848 10.496l0.736 36.064s-54.304 23.616-87.52-16.064a153.376 153.376 0 0 1-19.872-30.752 18.24 18.24 0 0 0-34.496 5.504c-4.224 30.24-2.528 67.328 18.208 100.8 45.184 72.832 126.624 85.76 126.624 85.76l0.64 31.136a11.072 11.072 0 0 0 18.592 7.968l89.632-82.272c6.496-6.016 10.304-14.304 10.624-23.168a33.12 33.12 0 0 0-9.12-23.776L528.64 623.68zM470.56 271.904a11.04 11.04 0 0 0 12.256 2.56 11.04 11.04 0 0 0 6.848-10.464l-0.736-36.064s54.336-23.68 87.584 16.032c8.384 10.048 14.88 20.64 19.872 30.784a18.24 18.24 0 0 0 34.464-5.504c4.256-30.272 2.528-67.328-18.176-100.8-45.184-72.896-126.656-85.824-126.656-85.824l-0.64-31.104a11.008 11.008 0 0 0-6.72-9.984 11.136 11.136 0 0 0-11.872 2.016l-89.568 82.304a32.992 32.992 0 0 0-1.504 47.008l94.848 99.04z" /></svg>