<?xml version="1.0" encoding="iso-8859-1"?>
<!-- Uploaded to: SVG Repo, www.svgrepo.com, Generator: SVG Repo Mixer Tools -->
<svg fill="#000000" height="800px" width="800px" version="1.1" id="Capa_1" xmlns="http://www.w3.org/2000/svg" xmlns:xlink="http://www.w3.org/1999/xlink" 
	 viewBox="0 0 463 463" xml:space="preserve">
<path d="M295.5,80c-6.177,0-11.801,2.399-16,6.31c-4.199-3.911-9.823-6.31-16-6.31c-2.997,0-5.862,0.57-8.5,1.597V61.765
	c9.29-3.138,16-11.93,16-22.266c0-12.958-10.542-23.5-23.5-23.5H239V7.5c0-4.142-3.358-7.5-7.5-7.5S224,3.358,224,7.5V16h-8.5
	C202.542,16,192,26.542,192,39.5c0,10.336,6.71,19.128,16,22.266v19.832C205.362,80.57,202.497,80,199.5,80
	c-6.177,0-11.801,2.399-16,6.31c-4.199-3.911-9.823-6.31-16-6.31c-12.958,0-23.5,10.542-23.5,23.5v23c0,4.518,3.546,8.214,8,8.475
	V151.5c0,8.547,6.953,15.5,15.5,15.5H208v249h-32.5c-12.958,0-23.5,10.542-23.5,23.5v16c0,4.142,3.358,7.5,7.5,7.5h144
	c4.142,0,7.5-3.358,7.5-7.5v-16c0-12.958-10.542-23.5-23.5-23.5H255V167h40.5c8.547,0,15.5-6.953,15.5-15.5v-16.525
	c4.454-0.261,8-3.956,8-8.475v-23C319,90.542,308.458,80,295.5,80z M295.5,95c4.687,0,8.5,3.813,8.5,8.5V120h-17v-16.5
	C287,98.813,290.813,95,295.5,95z M263.5,95c4.687,0,8.5,3.813,8.5,8.5V120h-17v-16.498V103.5C255,98.813,258.813,95,263.5,95z
	 M240,63v18.598C237.362,80.57,234.497,80,231.5,80s-5.862,0.57-8.5,1.597V63H240z M223,103.5c0-4.687,3.813-8.5,8.5-8.5
	s8.5,3.813,8.5,8.5v0.002V120h-17V103.5z M215.5,31h15.99c0.003,0,0.006,0,0.01,0s0.006,0,0.01,0h15.99c4.687,0,8.5,3.813,8.5,8.5
	s-3.813,8.5-8.5,8.5h-32c-4.687,0-8.5-3.813-8.5-8.5S210.813,31,215.5,31z M199.5,95c4.687,0,8.5,3.813,8.5,8.5V120h-17v-16.5
	C191,98.813,194.813,95,199.5,95z M159,103.5c0-4.687,3.813-8.5,8.5-8.5s8.5,3.813,8.5,8.5V120h-17V103.5z M296,439.5v8.5H167v-8.5
	c0-4.687,3.813-8.5,8.5-8.5h112C292.187,431,296,434.813,296,439.5z M223,416V199h17v217H223z M240,184h-17v-17h17V184z M295.5,152
	h-79.99c-0.003,0-0.006,0-0.01,0s-0.006,0-0.01,0H167.5c-0.276,0-0.5-0.224-0.5-0.5V135h16.5h32h32h32H296v16.5
	C296,151.776,295.776,152,295.5,152z"/>
</svg>