<?xml version="1.0" encoding="utf-8"?>
<!-- Svg Vector Icons : http://www.onlinewebfonts.com/icon -->
<!DOCTYPE svg PUBLIC "-//W3C//DTD SVG 1.1//EN" "http://www.w3.org/Graphics/SVG/1.1/DTD/svg11.dtd">
<svg version="1.1" xmlns="http://www.w3.org/2000/svg" xmlns:xlink="http://www.w3.org/1999/xlink" x="0px" y="0px" viewBox="0 0 256 256" enable-background="new 0 0 256 256" xml:space="preserve">
<metadata> Svg Vector Icons : http://www.onlinewebfonts.com/icon </metadata>
<g><g><g><path fill="#000000" d="M50.8,20.5C43,23.4,37.6,30.8,37.6,38.9v3.4l-3,1.1c-4,1.4-8.7,5.8-10.7,9.9c-1.2,2.5-1.8,4.5-1.9,8.1l-0.2,4.7l-2.3,1.3c-3,1.7-6.5,5.6-8.1,9.1c-1.8,4-1.8,12.5,0.1,16.5c1.8,4,5.8,8.1,9.8,10c3.4,1.7,3.5,1.7,17.8,1.9l14.4,0.2v27c0,26.7,0,26.9-1.2,26.9c-1.8,0-4.6,1.6-5.1,2.7c-0.7,2-0.3,4,1.2,5.5c1.4,1.5,1.8,1.5,9.6,1.5c7.3,0,8.3-0.1,9.8-1.3c3.2-2.5,1.6-7.5-2.7-8.2l-2.4-0.4l0.1-26.7l0.2-26.7L77,105c13.2-0.3,14.5-0.4,17.3-1.7c3.8-1.8,7.8-5.6,9.9-9.5c2.2-4.4,2.5-11.4,0.7-16.2c-1.5-3.9-5.5-8.7-8.7-10.5c-2.1-1.1-2.1-1.2-2.4-6c-0.2-3.7-0.7-5.6-1.8-7.9c-2.1-4-6.1-7.8-10.1-9.6l-3.3-1.5l-0.2-3.3c-0.4-7.9-5.6-15.4-12.7-18C61.8,19.3,54.4,19.1,50.8,20.5z"/><path fill="#000000" d="M111.5,101.1c-24.2,18.8-44.3,34.6-44.7,34.9c-0.6,0.6-0.2,1.5,1.8,4.2c1.5,1.9,2.8,3.5,3.1,3.5c0.3,0,2.5-1.5,4.8-3.4L81,137l0.2,49.7l0.1,49.7h26h26v-33v-33h22.4h22.4v33v33h26.3h26.3l0.1-49.7l0.2-49.6l4.4,3.4c5,3.8,4.8,3.9,8.5-1.3l1.9-2.7l-44.8-34.9c-24.7-19.2-45.1-34.9-45.3-34.8C155.6,66.9,135.7,82.3,111.5,101.1z"/></g></g></g>
</svg>