<?xml version="1.0" standalone="no"?>
<!DOCTYPE svg PUBLIC "-//W3C//DTD SVG 20010904//EN"
 "http://www.w3.org/TR/2001/REC-SVG-20010904/DTD/svg10.dtd">
<svg version="1.0" xmlns="http://www.w3.org/2000/svg"
 width="512.000000pt" height="455.000000pt" viewBox="0 0 512.000000 455.000000"
 preserveAspectRatio="xMidYMid meet">

<g transform="translate(0.000000,455.000000) scale(0.100000,-0.100000)"
fill="#000000" stroke="none">
<path d="M3372 4377 l-151 -172 174 -3 c96 -1 254 -1 351 0 l175 3 -131 114
c-72 62 -162 140 -200 172 l-68 59 -150 -173z"/>
<path d="M261 4132 c-19 -10 -43 -34 -53 -53 -17 -32 -18 -106 -18 -1739 0
-1603 1 -1707 18 -1740 36 -73 8 -70 752 -70 743 0 713 -3 752 70 17 32 18 70
18 550 l1 515 244 280 245 280 -245 3 -245 2 0 900 c0 976 2 938 -55 990 l-27
25 -676 3 c-641 2 -679 1 -711 -16z m1010 -255 c53 -24 96 -63 127 -116 l27
-46 3 -614 c3 -676 3 -668 -58 -743 -17 -20 -53 -48 -82 -62 l-52 -26 -274 0
c-182 0 -288 4 -314 12 -45 13 -122 77 -143 118 -30 58 -32 114 -23 691 7 470
11 593 23 629 29 87 101 150 198 170 23 5 152 8 287 6 201 -2 251 -5 281 -19z"/>
<path d="M2859 3788 c-63 -73 -118 -139 -123 -145 -6 -10 67 -13 351 -13 l359
0 114 132 c63 72 119 137 123 145 7 11 -56 13 -351 13 l-359 0 -114 -132z"/>
<path d="M2360 3218 c-63 -72 -116 -135 -118 -140 -2 -4 158 -8 356 -8 l360 0
93 107 c52 59 107 122 123 140 l28 33 -363 0 -364 -1 -115 -131z"/>
<path d="M1870 2654 c-63 -74 -116 -139 -118 -144 -2 -6 128 -10 351 -10 l355
0 69 78 c38 42 95 107 127 145 l58 67 -363 -1 -364 0 -115 -135z"/>
<path d="M2665 2434 c-16 -8 -34 -23 -40 -32 -5 -9 -82 -197 -170 -417 l-161
-400 -68 -7 c-88 -8 -149 -45 -191 -112 l-30 -49 -3 -469 -3 -468 111 0 110 0
0 -167 c0 -142 3 -174 19 -209 38 -83 99 -108 254 -102 100 3 108 5 144 34 67
53 73 76 73 272 l0 172 855 0 855 0 0 -167 c0 -142 3 -174 19 -208 37 -81 90
-105 230 -105 110 0 142 8 184 48 53 50 57 67 57 257 l0 175 105 0 106 0 -3
468 -3 469 -30 49 c-41 66 -101 102 -188 111 l-69 8 -166 415 c-162 402 -168
416 -202 432 -33 17 -96 18 -900 18 -765 0 -868 -2 -895 -16z m1799 -516 c71
-172 131 -319 133 -325 4 -10 -208 -13 -1040 -13 l-1045 0 124 303 c68 166
128 312 134 325 l10 22 778 0 778 0 128 -312z m-1838 -667 c22 -10 57 -37 77
-61 124 -145 18 -360 -178 -362 -149 -1 -257 161 -199 300 48 116 188 174 300
123z m2039 0 c53 -24 111 -90 125 -143 35 -127 -44 -247 -182 -277 -118 -27
-237 63 -254 193 -13 89 48 192 136 230 48 21 127 19 175 -3z"/>
<path d="M105 337 c-21 -12 -53 -42 -70 -65 -28 -41 -30 -50 -34 -158 l-3
-114 962 0 962 0 -3 114 c-4 108 -6 117 -34 158 -17 23 -49 53 -70 65 l-40 23
-815 0 -815 0 -40 -23z"/>
</g>
</svg>
